<svg xmlns="http://www.w3.org/2000/svg" width="24.101" height="24.099" viewBox="0 0 24.101 24.099"><defs><style>.a{fill:rgba(0,0,0,0.74);}</style></defs><path class="a" d="M23.66,2.571,21.532.443a1.509,1.509,0,0,0-2.132,0l-3.2,3.2a1.509,1.509,0,0,0,0,2.132L13.652,8.319c-2.137-1.365-4.726-1.36-6.284.2a3.938,3.938,0,0,0-.965,1.6,2.414,2.414,0,0,1-2.01,1.643,4.779,4.779,0,0,0-2.985,1.356c-2.175,2.17-1.784,6.077.861,8.723s6.553,3.032,8.723.861a4.78,4.78,0,0,0,1.356-2.989,2.42,2.42,0,0,1,1.643-2.01,3.938,3.938,0,0,0,1.6-.965c1.558-1.558,1.558-4.147.2-6.284l2.551-2.551a1.509,1.509,0,0,0,2.132,0l3.2-3.2a1.507,1.507,0,0,0,0-2.128Zm-13.868,14a2.26,2.26,0,1,1,2.26-2.26A2.26,2.26,0,0,1,9.792,16.571Z" transform="translate(0 -0.002)"/></svg>