<svg xmlns="http://www.w3.org/2000/svg" width="18.764" height="18.755" viewBox="0 0 18.764 18.755"><defs><style>.a{fill:#fff;}</style></defs><g transform="translate(-3.368 -3.375)"><path class="a" d="M5.271,11.007A4.141,4.141,0,0,1,7.232,7.449a.146.146,0,0,0-.077-.271h0a3.482,3.482,0,0,0-3.341,3.147A.64.64,0,0,0,3.368,11a.615.615,0,0,0,.487.667,3.978,3.978,0,0,0,2.759,2.908h0a.2.2,0,0,0,.171-.338A4.492,4.492,0,0,1,5.271,11.007Z" transform="translate(0 -1.365)"/><path class="a" d="M23.236,5.846c-.045-.122-.095-.234-.144-.347a4.625,4.625,0,0,0-.978-1.452,2.225,2.225,0,0,0-1.569-.672,2.061,2.061,0,0,0-1.163.352A16.08,16.08,0,0,1,12.438,5.8c-1.88,0-1.776.009-1.776.009a4.227,4.227,0,0,0-.469,7.439c.546.455,1.064.4.951,1s-1.014,4.4-1.127,5.185-.131,1.24.18,1.623a6.653,6.653,0,0,0,3.066,1.073c.834,0,.622-.392.622-1.975s-.419-5.938.744-5.938c2.178,0,3.314.78,5.018,1.429a2.416,2.416,0,0,0,.906.212,2.224,2.224,0,0,0,1.564-.821,4.672,4.672,0,0,0,.978-1.452c.05-.117.1-.234.149-.361a10.528,10.528,0,0,0,.618-3.692A10.534,10.534,0,0,0,23.236,5.846Zm-1.2,7.078c-.289.708-.793,1.271-1.213,1.271s-.8-.564-1.091-1.271a9.3,9.3,0,0,1-.555-3.368,9.332,9.332,0,0,1,.555-3.377c.289-.7.672-1.127,1.087-1.127s.915.428,1.208,1.127a9.083,9.083,0,0,1,.009,6.745Z" transform="translate(-1.731)"/></g></svg>