<svg xmlns="http://www.w3.org/2000/svg" viewBox="0 0 150.6 34.38"><defs><style>.cls-1{fill:#f7f5f5;}</style></defs><g id="Warstwa_2" data-name="Warstwa 2"><g id="Warstwa_1-2" data-name="Warstwa 1"><path class="cls-1" d="M6.36,29.19a1.42,1.42,0,0,0-.3.3,2.36,2.36,0,0,1-.31.35c.32-.25.61-.5.9-.75s.58-.5.89-.75l0-.05s-.08,0-.14.1l.05-.05H7.35l-.52.42C6.68,28.89,6.52,29,6.36,29.19Z"/><path class="cls-1" d="M33.29,13.72q-.09.28-.21.57l-.21.51a.2.2,0,0,1,.14,0c.06-.19.14-.37.21-.56a5,5,0,0,1,.26-.52l-.12,0S33.33,13.72,33.29,13.72Z"/><path class="cls-1" d="M33.81,12.88a9.25,9.25,0,0,0,.66-1.06L35,10.76a2.4,2.4,0,0,1,.36-.47,1.29,1.29,0,0,1,.58-.14l1-.07,1,0c.38,0,.75-.05,1.13-.05a11.69,11.69,0,0,0,1.17,0A.94.94,0,0,0,41,9.63c.2-.21.27-.4.21-.56L41,8.65a.7.7,0,0,0-.35-.28,3.93,3.93,0,0,0-1.44-.66,8.5,8.5,0,0,0-1.67-.24,1.37,1.37,0,0,1-.28,0l-.33-.07c.35-.66.7-1.29,1.06-1.9a15.49,15.49,0,0,0,1-2l-.7.71c.16-.28.3-.56.45-.82l.4-.78a2,2,0,0,1-.38-.47l-.28-.47L38.09,2a3.45,3.45,0,0,0-.28.26A3.74,3.74,0,0,1,38,1.74a.32.32,0,0,1,0-.19.13.13,0,0,0,0-.14.37.37,0,0,0-.47.09l-.33.43C37,1.71,37,1.58,37,1.55c0-.5-.3-.58-.8-.23a1.87,1.87,0,0,0-.33.28l-.28.28a6.67,6.67,0,0,0-.8.94l-1.29,2-1.3,2.05a1.51,1.51,0,0,1-.35.45,1.22,1.22,0,0,1-.49.07H29.3l-1,.05.05-.05a4.27,4.27,0,0,0,1.08-1.81A2.06,2.06,0,0,0,29,3.9a5.41,5.41,0,0,0-4.84-2.54,14.47,14.47,0,0,0-3.6.47A18.6,18.6,0,0,0,16.94,3.2L15.43,4q-.75.4-1.5.87a41,41,0,0,0-3.76,2.42,35.52,35.52,0,0,0-3.48,2.89A11.62,11.62,0,0,0,5.52,11.3a8.79,8.79,0,0,0-.94,1.3A4.82,4.82,0,0,0,4,13.68a1.63,1.63,0,0,0-.1,1.08A5.37,5.37,0,0,0,4.39,16a2.64,2.64,0,0,0,1,.94,7.55,7.55,0,0,0,1.81.8c.64.18,1.29.36,2,.51s1.57.36,2.37.52,1.58.33,2.33.52a6.85,6.85,0,0,1,2.58,1.08,1.34,1.34,0,0,1,.38,1.83,5.2,5.2,0,0,1-1,1.65,9.38,9.38,0,0,1-.79.87,11,11,0,0,1-1,.77A33.66,33.66,0,0,1,10.31,28a31.83,31.83,0,0,1-3.9,1.9.66.66,0,0,1-.3.12l-.31.07V30a.12.12,0,0,0,0-.07.1.1,0,0,1,0-.08l-.4.24a4.27,4.27,0,0,1-.49.28A5.17,5.17,0,0,1,6,29.23a7.68,7.68,0,0,1,1.39-.89l.17-.16L7.68,28a3.47,3.47,0,0,1,1.15-.77,4.18,4.18,0,0,0,1.2-.78s.05,0,.05-.05A1.79,1.79,0,0,0,11,26a3.41,3.41,0,0,0,.65-.87.46.46,0,0,1-.21,0,.46.46,0,0,0-.21.05,2.65,2.65,0,0,1,.12-.37.38.38,0,0,0,0-.29.36.36,0,0,0-.26-.09.55.55,0,0,1-.25-.05v-.51l-.57.16a3,3,0,0,0-.51.17c.06-.16.17-.4.32-.71-.47.16-.9.31-1.29.47a11.06,11.06,0,0,0-1.15.56c-1,.54-2,1.1-2.91,1.7S2.9,27.46,2,28.15A6.64,6.64,0,0,0,.72,29.38,2.5,2.5,0,0,0,0,30.76,1.7,1.7,0,0,0,.3,32a.61.61,0,0,0,.12.16.22.22,0,0,1,.07.17,1.45,1.45,0,0,0,.52.84,2.45,2.45,0,0,0,.89.42,24.56,24.56,0,0,0,2.58.71,2.63,2.63,0,0,0,.8.07l.85-.07A9.71,9.71,0,0,0,7.75,34a11,11,0,0,0,1.62-.61,41.57,41.57,0,0,0,6.49-3.71c.72-.5,1.41-1,2.07-1.55a18.52,18.52,0,0,0,1.88-1.79l.56-.78a6.06,6.06,0,0,0,.52-.87l-.36.38-.35.42A14.54,14.54,0,0,1,17.69,28l-.42.28a3.19,3.19,0,0,1,.3-.42c.11-.12.23-.25.36-.37q.55-.62,1.17-1.2a12.14,12.14,0,0,0,1.13-1.25,5.8,5.8,0,0,0,1.1-2.11,2.9,2.9,0,0,0-.25-2.07,7.66,7.66,0,0,0-1.51-2A8.87,8.87,0,0,0,17,17.18a15.88,15.88,0,0,0-3-1c-.87-.25-1.76-.46-2.65-.64L8.67,15l-.33-.09-.28-.1A4.57,4.57,0,0,1,8.53,14a6.08,6.08,0,0,1,.7-.8l.66-.66c.22-.22.42-.44.61-.66-.41.35-.81.7-1.2,1.06L8.15,14a2.57,2.57,0,0,1,.42-.71,6.88,6.88,0,0,1,.8-.84,11.15,11.15,0,0,1,1-.8,6.18,6.18,0,0,1,1-.61l-.4.37c-.14.13-.29.27-.44.43l.58-.36a.83.83,0,0,0,.36-.54,1.15,1.15,0,0,0,.33,0s-.05,0-.05-.1a.14.14,0,0,0,0-.09,1.77,1.77,0,0,1,.66-.42l-.28.28a1.87,1.87,0,0,0-.28.33l.42-.28.42-.33Q14.49,9,16.35,7.85a26.46,26.46,0,0,1,3.88-1.93c.72-.28,1.46-.54,2.21-.77a8.46,8.46,0,0,1,2.25-.4.58.58,0,0,1,.19,0l.33.07c-.19.25-.36.49-.52.73a5.43,5.43,0,0,1-.47.63Q22.35,8.14,20.42,10c-.6.57-1.19,1.11-1.79,1.65l-1.79,1.59a11.13,11.13,0,0,0-1,1.13c-.28.35-.33.63-.14.85,1-.91,2.07-1.81,3.1-2.7l3.1-2.71c.44-.4.87-.81,1.3-1.22a8.5,8.5,0,0,0,1.15-1.41,1.89,1.89,0,0,1,.23-.28l.29-.28a.24.24,0,0,1,.18-.1.68.68,0,0,0,.28-.09,2,2,0,0,1-.42.73c-.19.2-.36.4-.52.58A15.28,15.28,0,0,1,22.6,9.59c-.64.56-1.29,1.13-2,1.69s-1.31,1.18-2,1.76-1.33,1.17-2,1.76l-.57.57a.9.9,0,0,0-.09.47c.09.09.22.09.38,0l.25-.09.31-.15c0,.25.13.36.3.31a4.88,4.88,0,0,1,.55-.12v.42l.39-.14a2.42,2.42,0,0,0,.4-.14l.57-.28a2.55,2.55,0,0,0,.52-.33,51.16,51.16,0,0,0,6.64-5.17h0a10.53,10.53,0,0,1,1.81.33,5.35,5.35,0,0,0,1.9.14s.08,0,.14.1a.66.66,0,0,1-.14.42c-.16.44-.32.87-.49,1.29s-.34.86-.5,1.29q-1.08,3.39-2,6.77a23.48,23.48,0,0,0-.52,2.3,19.45,19.45,0,0,0-.23,2.26,2.49,2.49,0,0,0,.8,2c.25.22.54.21.89-.05a1.38,1.38,0,0,1,.28-.11.56.56,0,0,1,.28,0A.57.57,0,0,0,29,27a.6.6,0,0,0,.37-.35h.14a.21.21,0,0,0,0,.17.39.39,0,0,1,0,.16c.22-.12.3-.28.24-.47a1.81,1.81,0,0,1-.19-1.6c.06-.28.12-.56.17-.84s.1-.57.16-.85c.16-.5.29-1,.4-1.48s.24-1,.4-1.48a3.78,3.78,0,0,0,.26-.85,1.31,1.31,0,0,1,.58-.8s.05-.1.05-.23l.57-1.43c.18-.49.37-1,.56-1.48,0,0-.08,0-.33-.1.25-.53.5-1.05.75-1.55l.76-1.55H34c0,.13-.06.24-.09.35S33.84,12.78,33.81,12.88Zm3.76-7.4c.22-.4.44-.78.66-1.16a.49.49,0,0,0,0,.19.32.32,0,0,1,0,.19c-.15.28-.31.56-.46.82s-.32.54-.47.82a.38.38,0,0,1-.12.15.88.88,0,0,0-.17.14Zm-.8,1.43.1-.19a1.38,1.38,0,0,1-.1.38h-.09ZM5.54,26.65a1.53,1.53,0,0,0,.17-.14s0,0,0,.07a.18.18,0,0,0,0,.07l-.24.07-.18.07A.94.94,0,0,1,5.54,26.65Zm.21,2.16a0,0,0,0,1,0,.05,1.35,1.35,0,0,1-.19.16l-.19.17a.14.14,0,0,0-.09-.05A3.08,3.08,0,0,1,5.75,28.81ZM3.07,30.08A.14.14,0,0,0,3,30l.19-.21a1.29,1.29,0,0,1,.19-.21.14.14,0,0,0,.09.05A3.49,3.49,0,0,1,3.07,30.08Zm-.47-.94a2.71,2.71,0,0,1-.4.35l-.49.4A3.84,3.84,0,0,1,3,28.34a12.31,12.31,0,0,1,2.26-1.46.64.64,0,0,1-.1.14.66.66,0,0,0-.09.15l-1.2,1C3.46,28.47,3,28.79,2.6,29.14Zm1.55,1.32a1.06,1.06,0,0,1,.33-.52L5,29.56A1.41,1.41,0,0,1,4.6,30ZM15.39,26a20,20,0,0,1-1.79,1.11c.53-.44,1.05-.89,1.55-1.34l1.55-1.39.05.05A4.25,4.25,0,0,1,15.39,26Zm3.15.1q.38-.41.75-.78a2.49,2.49,0,0,1-.64.92,5.43,5.43,0,0,1-.86.63C18,26.63,18.29,26.38,18.54,26.11ZM7.35,12.62c-.12.14-.27.29-.42.45a.18.18,0,0,1,0-.07s0,0-.09-.08l.84-.84.1.09C7.6,12.33,7.48,12.48,7.35,12.62Zm.66.87a1.81,1.81,0,0,1,.47-.85,3,3,0,0,1,.8-.56A16.16,16.16,0,0,0,8,13.49Zm1.74-1.83c-.07,0-.08-.07-.05-.1a.43.43,0,0,1,.14-.16,1.45,1.45,0,0,0,.19-.17.16.16,0,0,0,.05.1A1.29,1.29,0,0,0,9.75,11.66Zm1.6-3.91a29,29,0,0,0-2.52,2L6.41,12a2,2,0,0,1-.75.48,5.19,5.19,0,0,0,.42-.57,3.6,3.6,0,0,1,.43-.52c.75-.72,1.51-1.39,2.3-2s1.6-1.22,2.44-1.78a.26.26,0,0,1,.19-.1.46.46,0,0,0,.19,0A.64.64,0,0,1,11.35,7.75Zm.89-.7c-.1.06-.27.16-.52.28.1-.06.27-.19.52-.37ZM25.59,9.78l-.1-.1.29-.3,0,0c0,.07,0,.11,0,.17ZM27.8,7.47l0,0h-.2l.13-.14Zm-1.86.1c.17-.19.37-.39.59-.61l.09.09-.54.61-.18.19a2.33,2.33,0,0,0-.41.37l0,0s0-.07-.07-.07C25.59,8,25.77,7.75,25.94,7.57Zm-1.15,3.66L23.24,12.5s0,0,0-.09l.75-.64.75-.63a3.4,3.4,0,0,1,.29-.26,1.13,1.13,0,0,0,.23-.26l.65-.65a.5.5,0,0,0,.16.11C25.6,10.46,25.18,10.84,24.79,11.23Zm7.42,5a.34.34,0,0,1,0,.16,0,0,0,0,1-.05.05.41.41,0,0,0,.05-.19.46.46,0,0,1,0-.19h0A.45.45,0,0,0,32.21,16.24Z"/><path class="cls-1" d="M51.2,26.77a1.17,1.17,0,0,1,.28-.54h-.37a.79.79,0,0,0-.14-.45c-.07-.05-.27,0-.61,0a.82.82,0,0,1,0-.21c0-.08,0-.13,0-.16-.26-.1-.38-.24-.38-.43v-.56c0-.38.05-.75.07-1.13a7.59,7.59,0,0,1,.12-1.08.51.51,0,0,1,.09-.28,2.23,2.23,0,0,0,.19-.38.47.47,0,0,0,.09.33c.29-.87.6-1.77.94-2.68h-.09c-.09.19-.2.39-.31.59a4.79,4.79,0,0,0-.3.68A7.71,7.71,0,0,1,51,19.6a5.71,5.71,0,0,1,.38-.85l1.13-2.16q.55-1.08,1.08-2.16a3.28,3.28,0,0,0,.37-.64l.33-.68a.52.52,0,0,0,.07-.23c0-.1,0-.14,0-.14s-.24-.07-.26-.19a.39.39,0,0,0-.12-.28c-.12-.41-.39-.52-.79-.33L53,11.66a1.83,1.83,0,0,0-.19-.24,4,4,0,0,0-.4.26l-.4.26a1.61,1.61,0,0,1,.24-.36.26.26,0,0,0,0-.35l-.73-.68a1.31,1.31,0,0,0-1-.26.59.59,0,0,1-.21,0,.55.55,0,0,0-.26-.05l-.37-.1a.81.81,0,0,0-.38,0,8.41,8.41,0,0,0-2.09.57,13,13,0,0,0-1.95,1,31.11,31.11,0,0,0-3.52,2.47,41.12,41.12,0,0,0-3.2,2.89,24.59,24.59,0,0,0-1.76,2,13.92,13.92,0,0,0-1.48,2.23c-.26.51-.47,1-.66,1.48a6.13,6.13,0,0,0-.38,1.53,2.22,2.22,0,0,0,.52,1.81,2.17,2.17,0,0,0,1.83.54h.57A3.29,3.29,0,0,0,39,26.37a19.37,19.37,0,0,0,2.14-1.06c.67-.39,1.34-.82,2-1.29s1-.76,1.53-1.15,1-.78,1.48-1.16h.14v.38a9.94,9.94,0,0,0,.23,3.24,3.19,3.19,0,0,0,1.08,1.88l.45.26a.7.7,0,0,0,.54,0,3.1,3.1,0,0,1,.75-.1,2.64,2.64,0,0,1,.71.1.59.59,0,0,0,.4-.05c.11-.06.22-.13.35-.19A.81.81,0,0,0,51.2,26.77Zm1.13-11.12a.06.06,0,0,0,.05.07.08.08,0,0,1,0,.07h-.09Zm-.61-3.41L52,12a.61.61,0,0,1-.51.52A1.44,1.44,0,0,0,51.72,12.24ZM36,21.67a5,5,0,0,1,.83-1.58,19,19,0,0,1,1.59-1.95c.62-.66,1.26-1.28,1.93-1.88a13.83,13.83,0,0,1,1.86-1.41A41.1,41.1,0,0,0,38.89,18,32.2,32.2,0,0,0,36,21.67Zm4.84-3.29-.14.14c-.06,0-.09,0-.09-.05a.11.11,0,0,0,.09,0s0,0,0,0,0,0,.05,0ZM39.4,19.93c-.25.34-.51.71-.77,1.1l-.78,1.11A4.33,4.33,0,0,1,38.49,21,10.51,10.51,0,0,1,39.4,19.93ZM37,21.9l-.09,0c.15-.25.32-.5.49-.75s.34-.5.49-.75l.1,0c-.16.25-.32.5-.5.75S37.12,21.65,37,21.9Zm11-5.29a2.32,2.32,0,0,1-.21.26q-.95.94-1.83,1.86L44.1,20.59a.56.56,0,0,0-.14.09.2.2,0,0,1-.14.05l0-.1c.69-.72,1.39-1.45,2.09-2.21s1.4-1.5,2.09-2.25a.14.14,0,0,0,.1,0l0,.05A2,2,0,0,1,48,16.61Zm-1.29.05q-1.65,1.82-3.43,3.6a29,29,0,0,1-4.09,3.38c-.28.16-.56.31-.82.47l-.87.52a1.44,1.44,0,0,0,0-.35.92.92,0,0,1,0-.31,4,4,0,0,1,1-2.26c.4-.53.82-1,1.24-1.52s.87-1,1.34-1.44a2.43,2.43,0,0,1,.56-.63l.71-.54a1.38,1.38,0,0,1,0,.28l.4-.4a3.7,3.7,0,0,1,.4-.35,9.57,9.57,0,0,0,1.08-.94c.63-.44,1.22-.88,1.79-1.32a18.62,18.62,0,0,1,1.78-1.22c.38-.25.77-.49,1.18-.71a4.25,4.25,0,0,1,1.32-.42.77.77,0,0,0-.15.19.58.58,0,0,1-.14.19C48.87,14.19,47.79,15.46,46.69,16.66Z"/><path class="cls-1" d="M37.71,23.69a14.26,14.26,0,0,1,1.18-2c.44-.63.92-1.26,1.45-1.88a17.57,17.57,0,0,0-1.57,1.88A7.8,7.8,0,0,0,37.71,23.69Z"/><path class="cls-1" d="M53.15,16.12a1.08,1.08,0,0,0,.21-.66l-.42.61a1,1,0,0,0-.14.66A2.84,2.84,0,0,1,53.15,16.12Z"/><path class="cls-1" d="M52.26,17.41a2.4,2.4,0,0,1-.17.4c-.06.07-.08.12-.07.17a.19.19,0,0,1,0,.16h0a11.73,11.73,0,0,1,.75-1.31.57.57,0,0,0-.33.14A2.49,2.49,0,0,0,52.26,17.41Z"/><path class="cls-1" d="M53.88,14.59l-.09.17h0c.07-.06.1-.11.1-.14a.26.26,0,0,1,.09-.14h-.09A.21.21,0,0,1,53.88,14.59Z"/><path class="cls-1" d="M66.48,29.23a1.66,1.66,0,0,0,.14-.25l.09-.26h0A1.31,1.31,0,0,0,66.48,29.23Z"/><path class="cls-1" d="M72.45,15.65c.22-.56.43-1.13.65-1.69a.71.71,0,0,0,.1-.33,2.77,2.77,0,0,0-.61-1.41.34.34,0,0,0-.24-.09.52.52,0,0,1-.23-.05c0-.13-.07-.25-.1-.38s-.17-.15-.42-.09l-.21.21a3.22,3.22,0,0,1-.31.26.56.56,0,0,0,0-.21.44.44,0,0,1,0-.17q0-.37,0-.42a1.32,1.32,0,0,0-.43-.09.69.69,0,0,1-.42-.1c-.19-.12-.38-.25-.59-.37L69,10.34a3.08,3.08,0,0,0-1-.31,3.82,3.82,0,0,0-1.06,0,6.5,6.5,0,0,0-2,.59,19.16,19.16,0,0,0-1.88,1,4.68,4.68,0,0,0-.8.54c-.25.2-.5.4-.75.58a4.18,4.18,0,0,1-.57.33,1,1,0,0,0-.42.52.35.35,0,0,1-.12.07.41.41,0,0,0-.11.07l-.43.26a1.3,1.3,0,0,0-.32.3c-.35.35-.68.7-1,1.06l-.94,1.06A15.85,15.85,0,0,0,55,21.1,9.64,9.64,0,0,0,54.42,24a3.53,3.53,0,0,0,.92,2.44,2.65,2.65,0,0,0,1.41.76l.49.09.54.09a6.46,6.46,0,0,0,1.18.19,2.13,2.13,0,0,0,1.31-.42.52.52,0,0,1,.26-.12.74.74,0,0,0,.26-.07,2.53,2.53,0,0,0,.89-.42,4.88,4.88,0,0,0,.71-.66l.19.09c.12-.09.24-.18.35-.28a3.46,3.46,0,0,0,.35-.33,3.74,3.74,0,0,1-.47.14l1.13-1c.37-.34.77-.69,1.17-1l.1.09a1.6,1.6,0,0,0-.21.23l-.21.24c-.16.16-.33.31-.5.45s-.34.29-.49.44a5.15,5.15,0,0,0-.47.43q.33-.24.66-.45c.22-.14.45-.31.7-.49l-.12.25a.37.37,0,0,1-.11.17,11.84,11.84,0,0,0-.71,1.08,11.77,11.77,0,0,1-.7,1.08A11.44,11.44,0,0,1,59.9,30,6.09,6.09,0,0,1,58,31a3.5,3.5,0,0,1-1.9,0l-1-.38-1-.38a3.35,3.35,0,0,1-.73-.37,1.76,1.76,0,0,0-.87-.28,4.7,4.7,0,0,0-.54,0,1.31,1.31,0,0,0-.54.21.67.67,0,0,0,0-.28,2.17,2.17,0,0,0-.28.33l.1.19.09.18a1,1,0,0,0,.61.94.13.13,0,0,0,.12.05.16.16,0,0,1,.11.05q0,.24.12.3a.9.9,0,0,1,.26.17,15.52,15.52,0,0,0,2.4,1.22,15.84,15.84,0,0,0,3.76,1,4.55,4.55,0,0,0,1.38,0,3.51,3.51,0,0,0,1.39-.58l.42-.26a.8.8,0,0,1,.43-.12.72.72,0,0,0,.42-.19,1.32,1.32,0,0,0,.24-.37A4.75,4.75,0,0,0,63.3,32a3.68,3.68,0,0,1,.4-.38,2.1,2.1,0,0,1,.47-.47,22.75,22.75,0,0,0,2.35-2.72,24.21,24.21,0,0,0,1.84-2.92c.34-.62.65-1.25.94-1.88l.84-1.88c.32-.72.6-1.45.85-2.18s.52-1.48.8-2.23Q72.12,16.49,72.45,15.65ZM57.12,18.47a1.92,1.92,0,0,1,.52-.77,3.44,3.44,0,0,0,.61-.78,2.4,2.4,0,0,0,.47-.42,3,3,0,0,1,.68-1c.3-.28.59-.58.87-.89a5,5,0,0,1,.87-.85l1-.75a.55.55,0,0,1,.25-.14.59.59,0,0,0,.26-.14,3.62,3.62,0,0,0,.52-.52,1.15,1.15,0,0,0,.24,0,.46.46,0,0,0,.23-.12,1.36,1.36,0,0,1,.59-.37l.63-.19a.63.63,0,0,0,.19,0l.19,0-.71.71a2.93,2.93,0,0,1-.84.56.32.32,0,0,0-.24.09c-.34.26-.67.49-1,.71a10.15,10.15,0,0,0-.89.7c-.28.22-.55.44-.8.66l-.75.66a6.82,6.82,0,0,0-.61.59,4.72,4.72,0,0,1-.66.58.45.45,0,0,1-.47.24A2.51,2.51,0,0,1,57.12,18.47Zm4.63-2.3a.4.4,0,0,0,.12-.1l.73-.63c.23-.2.48-.43.73-.68a.44.44,0,0,0,.19.12.35.35,0,0,1,.18.11c-.84.72-1.65,1.48-2.42,2.26a30.82,30.82,0,0,0-2.18,2.49,4,4,0,0,1,1-1.46,1,1,0,0,0,.18-.28,1.34,1.34,0,0,1,.33-.61,4.76,4.76,0,0,1,.57-.47,1.81,1.81,0,0,1,.33-.26.56.56,0,0,0,.23-.4S61.71,16.2,61.75,16.17ZM63.42,14A5.44,5.44,0,0,0,62,15l-1.22,1.24c-.35.35-.68.71-1,1.08s-.67.75-1,1.13a1.26,1.26,0,0,1-.24.19s0-.05,0-.05,0,0,0-.05c.25-.31.51-.62.8-.94s.56-.64.84-1a4.54,4.54,0,0,0,.45-.52A5.73,5.73,0,0,1,61,15.6a5,5,0,0,1,1.23-1.17c.25-.16.5-.33.75-.52l.84-.61a.43.43,0,0,0,0,.19.2.2,0,0,1,0,.14A1.27,1.27,0,0,1,63.42,14ZM60.84,24.11a4.28,4.28,0,0,1-.38.26l-.42.26c0-.06,0-.1,0-.1s.19-.18.28-.25a3.45,3.45,0,0,0,.28-.26l1.86-1.62a19.18,19.18,0,0,0,1.72-1.77c.31-.4.62-.79.94-1.15s.64-.73,1-1.1a2,2,0,0,1,.52-.33l.1.09a6.39,6.39,0,0,1-.38.71l-.73.82c-.23.27-.48.54-.73.82-.62.69-1.27,1.33-1.92,1.93S61.56,23.58,60.84,24.11ZM64.43,22l.26-.1-.19.19a1.48,1.48,0,0,0-.19.28C64.31,22.15,64.35,22,64.43,22ZM65,27.66a.32.32,0,0,1,.47,0,2.2,2.2,0,0,1-.49.47c-.08,0-.21,0-.4-.19A.73.73,0,0,0,65,27.66Zm-.84-.87a3.32,3.32,0,0,1,0,.61c-.19-.06-.28-.12-.28-.16A1.5,1.5,0,0,1,64.13,26.79ZM62.76,29a5.52,5.52,0,0,1-1.08,1.08,5.12,5.12,0,0,1-1.36.71l.42-.4c.13-.11.25-.23.38-.36a2.87,2.87,0,0,0,.68-.58c.2-.24.43-.48.68-.73a7.26,7.26,0,0,1,.68-.68,1.54,1.54,0,0,1,.92-.4c-.13.15-.2.25-.24.28a1.18,1.18,0,0,0-.63.44C63.07,28.57,62.92,28.78,62.76,29Zm.43.66a1,1,0,0,0,.7-.57,1.18,1.18,0,0,1,.71-.61,1.76,1.76,0,0,1-.43.64l-.56.54a.55.55,0,0,1-.28.18S63.31,29.78,63.19,29.66Zm1.88.07-.71.73a3.79,3.79,0,0,1-.7.61c-.16.15-.25.11-.28-.14l.49-.22a.37.37,0,0,0,.21-.44l.45-.35a4.48,4.48,0,0,0,.4-.36,3.27,3.27,0,0,0,.35-.3c.11-.11.23-.21.35-.31A4.28,4.28,0,0,1,65.07,29.73Zm.61-.87a.3.3,0,0,0,.09-.19.26.26,0,0,1,.1-.19C65.93,28.64,65.87,28.76,65.68,28.86Zm-.78-5.69c-.36.31-.74.63-1.15.94a.14.14,0,0,0-.09-.05c.34-.34.7-.68,1.08-1s.73-.66,1.08-1a.09.09,0,0,1,.07,0l.07,0A9.89,9.89,0,0,1,64.9,23.17ZM67,19.41a8.16,8.16,0,0,1-.59.82,9.24,9.24,0,0,1-.8.9,7.15,7.15,0,0,1-.91.77c-.1-.15-.09-.27,0-.35a2.32,2.32,0,0,0,.26-.21c.41-.41.8-.82,1.18-1.22a11.11,11.11,0,0,0,1-1.32h0A1.23,1.23,0,0,1,67,19.41Zm1.65-5.8a2.89,2.89,0,0,0-.19.35c-.38.53-.76,1.08-1.15,1.64s-.8,1.12-1.2,1.65a24.34,24.34,0,0,1-2.94,3.45q-1.62,1.57-3.45,3a7.3,7.3,0,0,1-2,1.13c0-.12-.06-.22-.08-.3a.6.6,0,0,1,0-.26,6.69,6.69,0,0,1,.54-2.12,15.32,15.32,0,0,1,1.1-2.06,13.75,13.75,0,0,1,1.74-2.28,27.85,27.85,0,0,1,2.07-2,5.5,5.5,0,0,1,.92-.66l1-.61a4.77,4.77,0,0,1-.83.73,3.13,3.13,0,0,0-.77.77q1.22-.93,2.49-1.74a8.83,8.83,0,0,1,2.68-1.12A.4.4,0,0,1,68.69,13.61Z"/><path class="cls-1" d="M66.1,29.38c-.31.34-.63.69-.94,1.05s-.63.72-.94,1.06a5.5,5.5,0,0,0,.8-.66c.25-.25.49-.52.73-.8s.48-.54.73-.8a.56.56,0,0,1-.19.07A.77.77,0,0,0,66.1,29.38Z"/><path class="cls-1" d="M63.28,32.19a2.92,2.92,0,0,1-.37.15C63,32.49,63.16,32.45,63.28,32.19Z"/><path class="cls-1" d="M84,16.26a.09.09,0,0,1,.07,0l.07,0,.66-1.06.66-1.1a.16.16,0,0,1-.1-.05c-.25.38-.48.74-.7,1.1S84.18,15.92,84,16.26Z"/><path class="cls-1" d="M98.3,10.86l0-.16,0,.11Z"/><path class="cls-1" d="M98.81,9H99a1.78,1.78,0,0,1,.12-.29.49.49,0,0,0,.07-.23s0-.05,0-.05Z"/><path class="cls-1" d="M98.44,10.25c0,.14-.07.3-.11.45l.06-.17q0-.15.09-.33A.39.39,0,0,0,98.6,10a.74.74,0,0,1,.12-.28h-.14A3,3,0,0,0,98.44,10.25Z"/><path class="cls-1" d="M96.46,15.27h.1a.68.68,0,0,0,.09-.28h-.09A.73.73,0,0,1,96.46,15.27Z"/><path class="cls-1" d="M109.58,12.5a12.09,12.09,0,0,0,1.29-2.18A10.88,10.88,0,0,0,111.6,8c-.16.28-.3.56-.43.85l-.37.84a14.5,14.5,0,0,1-1.51,2.73,29.4,29.4,0,0,1-2,2.49.73.73,0,0,1-.26.23,3.9,3.9,0,0,1-.35.19l.21-.3a1.94,1.94,0,0,1,.26-.31,23.43,23.43,0,0,0,3.71-5.64,7.57,7.57,0,0,0,.59-2.16,2.73,2.73,0,0,0-.54-2,5.53,5.53,0,0,0-1.46-1.59,8.55,8.55,0,0,0-3-1.55,16.14,16.14,0,0,0-3.6-.57,20.51,20.51,0,0,0-4.67.26,32.34,32.34,0,0,0-4.77,1.2A23.21,23.21,0,0,0,91,3.55,22.15,22.15,0,0,0,88.75,4.7a21.51,21.51,0,0,0-2.11,1.41,9.16,9.16,0,0,0-1.79,1.83A7.15,7.15,0,0,0,84,9.52,2.27,2.27,0,0,0,84,11l0,.11a7.26,7.26,0,0,0-2.71-1.05,4.15,4.15,0,0,0-2.58.33,8.49,8.49,0,0,0-2.1,1.32,10.8,10.8,0,0,0-1.66,1.83,17.49,17.49,0,0,0-2,3.67,18.12,18.12,0,0,0-1.09,3.85,10.41,10.41,0,0,0,0,1.67,5.3,5.3,0,0,0,.33,1.58,4.69,4.69,0,0,0,1.34,1.95,3.87,3.87,0,0,0,2.28.82A5.92,5.92,0,0,0,77.29,27q.79-.16,1.59-.3a2.12,2.12,0,0,0,.57-.19c.19-.1.37-.21.56-.33a14.78,14.78,0,0,0,2.28-1.6c.71-.59,1.39-1.22,2-1.88a4.19,4.19,0,0,0,.47-.61,3.58,3.58,0,0,0,.25-.52c.08-.19.17-.37.26-.56a3.17,3.17,0,0,0,.17-.38c.05-.12.1-.26.16-.42-.06,0-.08,0,0-.05-.1.13-.19.25-.29.36a1.41,1.41,0,0,0-.23.35,2.67,2.67,0,0,0,.21-.8c0-.1-.12-.2-.31-.33-.09.13-.19.26-.3.4l-.35.45a.5.5,0,0,1,.09-.52.4.4,0,0,0,0-.47.77.77,0,0,0-.43.37,1.08,1.08,0,0,1-.32.43,2.42,2.42,0,0,0-.38.44,2.46,2.46,0,0,1-.38.45,3.72,3.72,0,0,1,.31-.82,3.25,3.25,0,0,0,.3-.82,1.24,1.24,0,0,0-.32.23l-.33.33c-.13.16-.25.31-.36.47a3.34,3.34,0,0,1-.4.47,18,18,0,0,1-4.51,3.34l-.49.28a.5.5,0,0,1-.5,0c-.28-.16-.42-.5-.42-1a1.48,1.48,0,0,1,.1-.51,1.83,1.83,0,0,0,.51,0,2.12,2.12,0,0,0,.36-.21l.3-.21c.47-.44.93-.86,1.39-1.27s.9-.83,1.34-1.27c.15-.16.3-.32.44-.49s.29-.34.45-.5c.25,0,.38-.14.38-.42.18-.22.36-.43.51-.63a5.78,5.78,0,0,1,.52-.59,15.06,15.06,0,0,0,1.36-1.67c.41-.58.79-1.17,1.13-1.76a2.8,2.8,0,0,0,.31-.74c.28.3.57.6.87.88a1,1,0,0,0,1.36,0c.06.1.08.18,0,.24a.44.44,0,0,1-.17.16,1.2,1.2,0,0,0-.21.17.32.32,0,0,0-.09.23.13.13,0,0,0,0,.1,1.29,1.29,0,0,1,.19.21.76.76,0,0,0,.21.19.61.61,0,0,0,.28.07.66.66,0,0,0,.4-.19s0,.05,0,.05,0,0,0,0,0,.05,0,.05a.85.85,0,0,1-.21.14.6.6,0,0,0-.21.14c.21.35.4.68.56,1a8.64,8.64,0,0,0,.52.89.81.81,0,0,0,.51.47.65.65,0,0,1,.61.47l.19.1a6.26,6.26,0,0,1,.42-.52,2.42,2.42,0,0,1-.18-.47c.37,0,.51.16.42.47s-.12.5-.16.75-.11.5-.17.75a.75.75,0,0,1-.61.61,2.82,2.82,0,0,1-.52,0L89,20.3a.92.92,0,0,1-.26.19l-.35.19a.58.58,0,0,0,0-.21.79.79,0,0,1,0-.17c0-.12-.09-.18-.19-.18a.32.32,0,0,0-.23.09,4.7,4.7,0,0,0-.59.59,6.22,6.22,0,0,1-.63.63.43.43,0,0,0-.17,0l-.16,0c0,.09,0,.18.07.26a2,2,0,0,1,0,.26c-.06.25,0,.41.17.49a.5.5,0,0,1,.3.4.59.59,0,0,1,.59.12,1.18,1.18,0,0,0,.49.3.2.2,0,0,0,.14.05h.19l.73.07c.23,0,.48,0,.73,0a2.2,2.2,0,0,0-.05.38.52.52,0,0,1,0,.23l-.18,1.13c-.07.38-.13.75-.19,1.13A23.41,23.41,0,0,0,89,28.69a12.94,12.94,0,0,0,0,2.33,14.57,14.57,0,0,0,.17,1.48A1.34,1.34,0,0,0,90,33.56a.63.63,0,0,1,.24.14l.19.19a4.7,4.7,0,0,0,.35-.4,2.51,2.51,0,0,1,.26-.31c.25,0,.47,0,.68,0s.41,0,.63.07a1.06,1.06,0,0,0,.38-1,3.23,3.23,0,0,1-.14-1.45q0-.72.12-1.41c0-.47.1-.95.16-1.42.09-.75.22-1.5.38-2.25a12.47,12.47,0,0,1,.7-2.26c-.06.25-.12.5-.16.76s-.11.5-.17.75A4.21,4.21,0,0,0,94,23.88a2.56,2.56,0,0,1,.52-1.13,1.88,1.88,0,0,0,.91-.24,2.64,2.64,0,0,1,.92-.28.82.82,0,0,0,.45-.14l.44-.28a2.9,2.9,0,0,1,.85-.47l1.76-.75c.58-.26,1.15-.54,1.72-.85l.68-.28a.76.76,0,0,0,.4-.71,2.33,2.33,0,0,0,1.39-.54l1.15-1c.81-.72,1.6-1.47,2.35-2.23A19.56,19.56,0,0,0,109.58,12.5Zm-.15-2a4.66,4.66,0,0,1-.7,1.39,9.29,9.29,0,0,1-1.08,1.2c.31-.44.61-.87.89-1.3S109.12,10.92,109.43,10.48ZM107.3,11l.44-.63.07.05s0,0,.07,0l-.44.64-.45.63a.13.13,0,0,0-.07,0s0,0-.07-.05ZM80.86,13a1.21,1.21,0,0,1,.28-.19c.53-.28.75-.15.66.38a6.55,6.55,0,0,1-.75,1.5,18.44,18.44,0,0,1-1.58,2.24c-.58.7-1.18,1.4-1.81,2.09-.15.19-.31.37-.47.56s-.34.41-.56.66a1,1,0,0,0,0-.38.27.27,0,0,1,.07-.23,18.07,18.07,0,0,1,.94-2.4A15.66,15.66,0,0,1,79,14.9,6.76,6.76,0,0,1,80.86,13Zm-1.13.71a15.42,15.42,0,0,0-1.93,2.77,20.84,20.84,0,0,0-1.27,2.91,5.64,5.64,0,0,1,.4-1.52,17.56,17.56,0,0,1,.8-1.7,10.82,10.82,0,0,1,1-1.5A4.18,4.18,0,0,1,79.73,13.68Zm-.8,0c-.25.4-.52.81-.8,1.22s-.55.81-.8,1.22a7.56,7.56,0,0,1,.61-1.29A4.46,4.46,0,0,1,78.93,13.68Zm-4,1.69a13,13,0,0,1,1.19-2,3.73,3.73,0,0,1,1.3-1.08l.09.09C76.71,13.27,75.84,14.27,74.94,15.37Zm1.31.33a.2.2,0,0,1-.14,0,6.86,6.86,0,0,1,1.36-2s0,0,.1,0c-.22.35-.43.68-.64,1S76.5,15.35,76.25,15.7ZM82,14.9l-.26.37c-.34.48-.7.95-1.08,1.44s-.75.95-1.13,1.38-.9,1.06-1.38,1.58l-1.49,1.57a.71.71,0,0,1-.11.17l-.17.16a.37.37,0,0,1,.07-.35,1.33,1.33,0,0,0,.21-.26c.54-.63,1.07-1.24,1.6-1.83s1.07-1.21,1.6-1.83c.28-.35.55-.7.8-1.06s.5-.73.75-1.11a2.58,2.58,0,0,0,.24-.37.55.55,0,0,1,.37-.28A.42.42,0,0,1,82,14.9Zm.68,2a1.32,1.32,0,0,0-.33.3,1.38,1.38,0,0,1,.52-.66A.39.39,0,0,1,82.69,16.9Zm-.14-1.11a.2.2,0,0,0-.14,0c.12-.19.24-.38.35-.57a3.4,3.4,0,0,1,.4-.56s.06,0,.07,0a.08.08,0,0,0,.07,0,4.94,4.94,0,0,0-.4.57C82.79,15.42,82.67,15.6,82.55,15.79Zm1.2-.07a2.24,2.24,0,0,1-.78.78c.19-.29.39-.57.59-.85s.4-.56.59-.85a.2.2,0,0,1,.14,0Q84,15.27,83.75,15.72Zm1.67-6.37a4.77,4.77,0,0,1,.42-1,1.83,1.83,0,0,1,.85-.68A3.26,3.26,0,0,1,85.42,9.35Zm2,4.56s0,0,0-.14.07-.09.19-.09c0,0,0,0,.1.14A.93.93,0,0,1,87.39,13.91Zm1.69-4.37.33-.42a2.88,2.88,0,0,1-.14.47A2.12,2.12,0,0,1,89,10a.13.13,0,0,0-.07,0s0,0-.07-.05Zm-.66-.09a1.87,1.87,0,0,0,.15-.26,1,1,0,0,1,.14-.26s0,0,0,0,0,0,0,0a1.85,1.85,0,0,0-.09.23,1.94,1.94,0,0,1-.1.24Zm.33,5.05-.23-.07a.72.72,0,0,1,.33-.19c.06,0,.12.11.19.33Zm1.09-1.18a.44.44,0,0,0-.19.12v-.19a.75.75,0,0,1,.33-.09s0,0,0,.09A.45.45,0,0,1,89.84,13.32Zm7.09,7.88a1.13,1.13,0,0,1-.09-.38.52.52,0,0,0,0-.23c.22,0,.31.1.28.21S97,21,96.93,21.2ZM98.51,20a.08.08,0,0,0,0,.07.87.87,0,0,1-.33-.05.14.14,0,0,0,0-.09h.33A.14.14,0,0,1,98.51,20Zm1.43-5.1c-.53.44-1.08.85-1.64,1.24s-1.12.8-1.65,1.2a6.44,6.44,0,0,1-.63.33,6.2,6.2,0,0,0-.69.38,53.17,53.17,0,0,1,1.81-5.43Q98.2,10,99.24,7.29c-.19.06-.32.06-.38,0a.72.72,0,0,1-.14-.24.94.94,0,0,0-.14-.26.35.35,0,0,0-.28-.12,3.13,3.13,0,0,0-.52.43.77.77,0,0,1,0-.33.65.65,0,0,0,0-.28.51.51,0,0,0-.54.09L96.84,7c-.16.25-.34.52-.54.8a9.41,9.41,0,0,0-.54.8,1.29,1.29,0,0,0-.19.21,1.68,1.68,0,0,0-.19.31,1.75,1.75,0,0,1,.42-1.27,5.15,5.15,0,0,0,.5-.68.92.92,0,0,0,.07-.78.81.81,0,0,0-.54.19,1.2,1.2,0,0,0-.31.42l-.73,1a5.62,5.62,0,0,0-.58,1.08c-.35.81-.67,1.61-1,2.39s-.58,1.59-.87,2.4a3.78,3.78,0,0,0-.19.66.53.53,0,0,1-.61-.33,1.18,1.18,0,0,0-.51-.56.24.24,0,0,0-.26,0,1.34,1.34,0,0,1-.35,0,.86.86,0,0,0,.11-.61.84.84,0,0,0-.23-.4,3,3,0,0,0-.38-.31.76.76,0,0,1-.3-.38s-.06,0-.17,0a.6.6,0,0,1-.3,0,.84.84,0,0,0,0-.94,1.09,1.09,0,0,1,.23-1.22,6.17,6.17,0,0,1,1.15-1.27A8.07,8.07,0,0,1,92,7.61,25.37,25.37,0,0,1,97.07,5.5c.85-.25,1.7-.47,2.56-.66a19.48,19.48,0,0,1,2.52-.38,10.13,10.13,0,0,1,1.43-.07,4.75,4.75,0,0,1,1.34.26,1.73,1.73,0,0,1,1,.78,2.73,2.73,0,0,1,.14,1.38,7.07,7.07,0,0,1-.59,1.65,13.54,13.54,0,0,1-1,1.6,18.5,18.5,0,0,1-2.14,2.56C101.61,13.42,100.79,14.18,99.94,14.9ZM96.51,9.45c.06-.16.14-.33.23-.52A4.59,4.59,0,0,0,97,8.41h.14Q97,8.7,96.88,9a4.16,4.16,0,0,1-.23.54S96.6,9.45,96.51,9.45ZM98,9.17c.06-.19.11-.35.14-.48h.09a1.37,1.37,0,0,0-.07.24,1.37,1.37,0,0,1-.07.24Zm7.66,1.8a10.27,10.27,0,0,1-1,1.34q-.57.66-1.17,1.23a6.33,6.33,0,0,1-1.23.89c.79-.78,1.51-1.57,2.19-2.35a25.88,25.88,0,0,0,1.86-2.45A7.22,7.22,0,0,1,105.63,11Zm.75,4.87a.48.48,0,0,1,.28-.47A4.73,4.73,0,0,0,106.38,15.84Z"/><path class="cls-1" d="M95.92,16.8a1.34,1.34,0,0,1-.12.4h.1a2.4,2.4,0,0,0,.12-.4,1.63,1.63,0,0,1,.11-.4H96A2.4,2.4,0,0,0,95.92,16.8Z"/><path class="cls-1" d="M93,28.48h0c.06-.53.16-1.08.28-1.64h-.09c-.06.18-.12.37-.17.56a5.15,5.15,0,0,1-.16.56,1,1,0,0,1,0,.29A.53.53,0,0,0,93,28.48Z"/><path class="cls-1" d="M98,11.19c-.15.4-.32.81-.49,1.22s-.34.81-.49,1.22a2.86,2.86,0,0,1-.12.35,2.06,2.06,0,0,0-.12.35h.14a.45.45,0,0,1,.14-.32c.19-.54.39-1.06.59-1.58s.42-1,.64-1.57l-.17.16A.52.52,0,0,0,98,11.19Z"/><path class="cls-1" d="M86.85,20.52l.16-.36h-.14l-.32.36-.33.35c-.22.16-.3.3-.24.44a.92.92,0,0,1,0,.5l.33-.33a1,1,0,0,1,.28-.71A.64.64,0,0,0,86.85,20.52Z"/><path class="cls-1" d="M124.62,16.73a2.84,2.84,0,0,1,.35-.61,1.08,1.08,0,0,0,.21-.66c-.16.22-.3.43-.42.61A.88.88,0,0,0,124.62,16.73Z"/><path class="cls-1" d="M126.12,13.11a1,1,0,0,0,.07-.23c0-.1,0-.14,0-.14s-.25-.07-.26-.19a.49.49,0,0,0-.12-.28c-.13-.41-.39-.52-.8-.33a2.75,2.75,0,0,0-.19-.28,1.25,1.25,0,0,0-.18-.24,4,4,0,0,0-.4.26l-.4.26a2,2,0,0,1,.23-.36.24.24,0,0,0,0-.35c-.25-.25-.49-.47-.73-.68a1.27,1.27,0,0,0-1-.26.59.59,0,0,1-.21,0,.58.58,0,0,0-.26-.05l-.38-.1a.77.77,0,0,0-.37,0,8.41,8.41,0,0,0-2.09.57,12.64,12.64,0,0,0-2,1,32,32,0,0,0-3.52,2.47,43,43,0,0,0-3.2,2.89c-.62.63-1.21,1.28-1.76,2a14.63,14.63,0,0,0-1.48,2.23c-.25.51-.47,1-.66,1.48a6.58,6.58,0,0,0-.37,1.53,2.22,2.22,0,0,0,.51,1.81,2.18,2.18,0,0,0,1.84.54H109a3.33,3.33,0,0,0,1.79-.23,20.28,20.28,0,0,0,2.14-1.06c.67-.39,1.34-.82,2-1.29s1-.76,1.53-1.15,1-.78,1.48-1.16h.14v.38a10.22,10.22,0,0,0,.24,3.24,3.09,3.09,0,0,0,1.08,1.88c.15.1.3.18.44.26a.7.7,0,0,0,.54,0,3.24,3.24,0,0,1,.76-.1,2.57,2.57,0,0,1,.7.1.58.58,0,0,0,.4-.05l.35-.19a.84.84,0,0,0,.43-.49,1.08,1.08,0,0,1,.28-.54h-.38a.79.79,0,0,0-.14-.45c-.06-.05-.26,0-.61,0a1.83,1.83,0,0,1,0-.21c0-.08,0-.13,0-.16-.25-.1-.37-.24-.37-.43v-.56c0-.38,0-.75.07-1.13a7.6,7.6,0,0,1,.11-1.08.46.46,0,0,1,.1-.28,2.28,2.28,0,0,0,.18-.38.46.46,0,0,0,.1.33c.28-.87.59-1.77.94-2.68h-.09l-.31.59a6.23,6.23,0,0,0-.31.68c.07-.31.15-.61.24-.89a4.84,4.84,0,0,1,.38-.85l1.12-2.16q.57-1.08,1.08-2.16a3.36,3.36,0,0,0,.38-.64C125.88,13.59,126,13.36,126.12,13.11Zm-18.33,8.56a5,5,0,0,1,.82-1.58,20.53,20.53,0,0,1,1.6-1.95,26.37,26.37,0,0,1,1.93-1.88A14.46,14.46,0,0,1,114,14.85,42.85,42.85,0,0,0,110.7,18,33.28,33.28,0,0,0,107.79,21.67Zm4.84-3.29-.14.14c-.06,0-.09,0-.09-.05a.11.11,0,0,0,.09,0s.05,0,.05,0,0,0,0,0Zm-1.41,1.55c-.25.34-.51.71-.78,1.1s-.52.76-.77,1.11A4.59,4.59,0,0,1,110.3,21,12.18,12.18,0,0,1,111.22,19.93Zm-2.44,2-.1,0c.16-.25.32-.5.5-.75s.33-.5.49-.75l.09,0c-.15.25-.32.5-.49.75S108.93,21.65,108.78,21.9Zm11-5.29a2.32,2.32,0,0,1-.21.26l-1.84,1.86q-.89.91-1.83,1.86a.56.56,0,0,0-.14.09.2.2,0,0,1-.14.05l0-.1,2.09-2.21,2.09-2.25a.12.12,0,0,0,.09,0l.05.05A2,2,0,0,1,119.8,16.61Zm2.09-3.92a.77.77,0,0,1-.14.19c-1.07,1.31-2.15,2.58-3.24,3.78s-2.25,2.41-3.44,3.6A28.85,28.85,0,0,1,111,23.64l-.83.47-.87.52a1.58,1.58,0,0,0,0-.35.69.69,0,0,1,0-.31,4.17,4.17,0,0,1,1-2.26c.41-.53.82-1,1.25-1.52s.87-1,1.34-1.44a2.27,2.27,0,0,1,.56-.63l.7-.54a1.23,1.23,0,0,1,0,.28l.4-.4a3.7,3.7,0,0,1,.4-.35,11.71,11.71,0,0,0,1.08-.94c.62-.44,1.22-.88,1.78-1.32a18.78,18.78,0,0,1,1.79-1.22c.38-.25.77-.49,1.17-.71A4.25,4.25,0,0,1,122,12.5,1,1,0,0,0,121.89,12.69Zm1.36-.19a1.2,1.2,0,0,0,.28-.26l.24-.26C123.74,12.24,123.57,12.41,123.25,12.5Zm.9,3.29v-.14a.07.07,0,0,0,0,.07s0,0,0,.07Z"/><path class="cls-1" d="M125.74,14.48a.19.19,0,0,1,0,.11,1,1,0,0,0-.1.17h.05a.26.26,0,0,0,.09-.14s0-.08.1-.14Z"/><path class="cls-1" d="M109.53,23.69a13.32,13.32,0,0,1,1.17-2c.44-.63.93-1.26,1.46-1.88a16.46,16.46,0,0,0-1.57,1.88A7.51,7.51,0,0,0,109.53,23.69Z"/><path class="cls-1" d="M124.07,17.41a2.38,2.38,0,0,1-.16.4c-.06.07-.09.12-.07.17a.19.19,0,0,1,0,.16h0a10.33,10.33,0,0,1,.76-1.31.57.57,0,0,0-.33.14A2,2,0,0,0,124.07,17.41Z"/><path class="cls-1" d="M131.24,19.74c.35-1.1.68-2.21,1-3.34s.67-2.25,1-3.38q.94-3,1.81-5.83t1.77-5.73A1.68,1.68,0,0,0,137,1a3.83,3.83,0,0,0,0-.47l-.1-.1a.47.47,0,0,1-.16.12l-.17.07c-.09-.16-.18-.3-.28-.45S136,0,135.66.05c-.06.18-.13.39-.19.61a5.75,5.75,0,0,1-.23.66,4.41,4.41,0,0,0-.38.75,2.48,2.48,0,0,1-.05.56l-.63,1.83c-.18.54-.39,1.08-.61,1.61V6a.35.35,0,0,1,.07-.26.36.36,0,0,1,.05-.19.19.19,0,0,0,0-.18A4.51,4.51,0,0,1,134.11,4c.22-.45.42-.92.61-1.39,0-.09.08-.26.14-.51s.19-.69.28-1a1.81,1.81,0,0,0,0-1h-.33a3.35,3.35,0,0,0-.37.45l-.33.44h-.05A1.65,1.65,0,0,0,134,.42c-.1-.37-.28-.4-.57-.09a6.4,6.4,0,0,0-.42.49l-.33.5a6.85,6.85,0,0,0-.4.87c-.11.29-.21.58-.3.86-.72,2.17-1.39,4.31-2,6.44s-1.18,4.28-1.72,6.44c-.34,1.41-.67,2.82-1,4.21s-.61,2.8-.9,4.21c-.09.53-.18,1-.25,1.55s-.17,1-.26,1.55a3.63,3.63,0,0,0,.09,1.13c.06.15.19.2.38.14s.33-.18.33-.43a1,1,0,0,1,0-.23c0-.1,0-.17,0-.24,0-.34.07-.69.1-1.05s.06-.72.09-1.06L128,20.77q.66-2.86,1.41-5.66c.5-1.86,1-3.74,1.55-5.62.28-1,.58-1.93.89-2.89s.6-1.93.85-2.93c.09-.25.19-.51.28-.78s.2-.56.33-.87a.55.55,0,0,1,.21.45,1.26,1.26,0,0,1-.12.44l-.35,1c-.11.33-.23.67-.35,1-.82,2.76-1.61,5.49-2.4,8.18s-1.47,5.42-2.07,8.18c-.25,1.1-.48,2.19-.7,3.27l-.66,3.26c0,.16-.05.3-.07.43a1.23,1.23,0,0,0,0,.42c0,.25.15.34.43.28a.49.49,0,0,0,.42-.42c0-.28.08-.61.14-1a3.54,3.54,0,0,1,.14.33,1.22,1.22,0,0,0,.14.28.67.67,0,0,0,.54-.35c.11-.2.23-.4.36-.59a.9.9,0,0,1,0,.4.25.25,0,0,0,.18.31.2.2,0,0,1,.05-.14s0-.08,0-.14c.19-.72.36-1.43.52-2.12s.33-1.39.52-2.11q.18-.7.39-1.44c.15-.48.29-1,.45-1.43a2.53,2.53,0,0,0,.07-.38C131.19,20,131.21,19.9,131.24,19.74Zm4-14.85a26.44,26.44,0,0,1,.92-2.49c-.22.84-.47,1.69-.73,2.53a23.19,23.19,0,0,1-1,2.54C134.74,6.6,135,5.73,135.26,4.89Zm-1.39,4.23a.45.45,0,0,1,0-.19L134,9a.34.34,0,0,0,0,.16.45.45,0,0,1-.05.17h-.09A.46.46,0,0,0,133.87,9.12Z"/><path class="cls-1" d="M135.75,6.7Q136.32,4.89,137,3c.09-.31.17-.63.23-.94s.14-.64.24-1a3.92,3.92,0,0,0-.31.66,6.41,6.41,0,0,0-.21.7c-.41,1.26-.82,2.5-1.22,3.74s-.8,2.45-1.18,3.64c-.47,1.48-.92,2.92-1.36,4.33s-.89,2.85-1.36,4.32c-.13.35-.25.69-.36,1s-.22.69-.35,1a1.92,1.92,0,0,0,0,.52c-.22.72-.42,1.45-.61,2.2s-.37,1.49-.56,2.21c-.06.32-.13.63-.19.94s-.12.61-.19.9a6.12,6.12,0,0,0,.36-1.15,9,9,0,0,1,.3-1.16q.94-3.66,2.05-7.33c.73-2.44,1.51-4.89,2.32-7.33C135,9.12,135.38,7.9,135.75,6.7Z"/><path class="cls-1" d="M150.42,11.51a3.54,3.54,0,0,0-.38-.39l-.42-.4a2.2,2.2,0,0,0-.89-.54,11.09,11.09,0,0,1-1-.4,3.16,3.16,0,0,0-1.41-.17,7,7,0,0,0-1.55.35,7.76,7.76,0,0,0-1.81.87A17.79,17.79,0,0,0,141.3,12,10.93,10.93,0,0,0,140,13.42,11.66,11.66,0,0,0,138.9,15a2.21,2.21,0,0,0,0,2.54,5.16,5.16,0,0,0,2.21,1.88,6.5,6.5,0,0,1,1.51.85,1.36,1.36,0,0,1,.54,1.34,2.4,2.4,0,0,1-.92,1.48,3.92,3.92,0,0,1-.89.56,5.16,5.16,0,0,1-2.78.61,2.44,2.44,0,0,1-1-.28,1.07,1.07,0,0,1-.47-.94s0-.09-.14-.19c.12-.15.23-.29.3-.4a3,3,0,0,1,.31-.35s0-.05-.07-.05,0,0-.07,0l-.33.3a5,5,0,0,0-.42.4,3.18,3.18,0,0,1,.47-.7.39.39,0,0,0-.1-.62,5.09,5.09,0,0,0-.42.29,5,5,0,0,0-.42.33.63.63,0,0,1,.21-.45.4.4,0,0,0,.12-.45,1.2,1.2,0,0,0-.8.52,1.94,1.94,0,0,1-.8.66c.15-.25.29-.48.4-.68s.22-.42.35-.64h-.19a2.85,2.85,0,0,0-1.41,1.15,1.6,1.6,0,0,0-.09,1.58,7.1,7.1,0,0,0,1.17,1.76A4.17,4.17,0,0,0,137,26.6a11.7,11.7,0,0,0,4.27.57,5.87,5.87,0,0,0,3.11-.94,7.85,7.85,0,0,0,1.12-.85,3.39,3.39,0,0,0,.73-.94l-.19.16a5.17,5.17,0,0,1-.4.36l-.23.23-.24.24s-.07,0-.14-.1l.54-.63a7.84,7.84,0,0,0,.5-.64,2.69,2.69,0,0,0,.56-1,4,4,0,0,0,.14-1.06,2.29,2.29,0,0,0-.21-1.18,4.54,4.54,0,0,0-.63-.94,7.53,7.53,0,0,0-1.37-1.22,10.28,10.28,0,0,0-1.59-.89,2.93,2.93,0,0,1-.38-.17l-.33-.16q-.53-.37-.09-1.08l.28-.49a2.7,2.7,0,0,1,.33-.5l-.38.38a4,4,0,0,0-.37.42,2.8,2.8,0,0,1,.63-1.08,5.15,5.15,0,0,1,1.06-.94.26.26,0,0,1,0,.14.46.46,0,0,0,0,.14c.35-.31.69-.6,1-.87a7.9,7.9,0,0,1,1.18-.73,4.52,4.52,0,0,1,.49-.25.72.72,0,0,1,.54,0q-.09.29-.21.57c-.08.18-.16.37-.26.56s-.3.5-.44.75-.29.5-.45.75a2.92,2.92,0,0,1-.23.47.46.46,0,0,0,0,.52c.25-.31.48-.61.68-.89a10.29,10.29,0,0,1,.69-.85.89.89,0,0,1-.1.47c-.12.19-.25.37-.37.54s-.26.36-.38.54a1.86,1.86,0,0,1-.21.28.2.2,0,0,0,0,.29c.06.09.15.09.26,0a2.91,2.91,0,0,1,.31-.24l.18-.19a3.26,3.26,0,0,1,.29-.23.83.83,0,0,0-.12.33,1,1,0,0,1-.07.23.26.26,0,0,1,.14,0l.09,0a4.6,4.6,0,0,0,1.39-1.27,11.47,11.47,0,0,1,1.2-1.41,1.35,1.35,0,0,1-.28.52l-.66.75c-.22.25-.43.5-.61.75a3,3,0,0,1-.38.4,1,1,0,0,0-.28.45l.09-.05a10.82,10.82,0,0,0,1.44-1.43c.42-.52.82-1,1.19-1.58a.2.2,0,0,0,.05-.14.14.14,0,0,0-.05-.09.9.9,0,0,0,.26-.26.87.87,0,0,1,.17-.21.29.29,0,0,0,.09-.21.26.26,0,0,1,.1-.21C150.65,12.05,150.64,11.73,150.42,11.51Zm-5.17,12.84a.12.12,0,0,1,.05-.1.31.31,0,0,1,.09-.12.18.18,0,0,0,.09-.07l.1.05a1.93,1.93,0,0,0-.28.38h-.1A.47.47,0,0,0,145.25,24.35Zm-2-.85a.9.9,0,0,1-.43.28,1.17,1.17,0,0,1,.66-.75A1.58,1.58,0,0,1,143.23,23.5Zm-3.34-8.65a1.75,1.75,0,0,1,.75-1.36c.35-.28.67-.57,1-.85a8.48,8.48,0,0,1,1-.8,2.92,2.92,0,0,1-.4.59c-.24.3-.5.61-.8.94s-.59.64-.87.92A6.84,6.84,0,0,1,139.89,14.85Zm1.29.07a3,3,0,0,1-.3.35,1.45,1.45,0,0,1,.11-.35,1.69,1.69,0,0,1,.45-.35Zm1.32-.16c-.2.25-.42.5-.64.75a2.69,2.69,0,0,1,.52-.87,4.17,4.17,0,0,1,.75-.63Q142.8,14.39,142.5,14.76Zm5.05.14a6,6,0,0,0-.52.7.08.08,0,0,1-.07,0s0,0-.07,0l.54-.71c.18-.22.36-.45.54-.7l.1.09C147.91,14.46,147.74,14.68,147.55,14.9Z"/><path class="cls-1" d="M146.33,24.25a1.22,1.22,0,0,1-.12.19l.17-.14Z"/></g></g></svg>