<svg xmlns="http://www.w3.org/2000/svg" width="12.119" height="15.75" viewBox="0 0 12.119 15.75"><defs><style>.a{fill:#fff;}</style></defs><path class="a" d="M18.5,3.383,10.691,4.9a.336.336,0,0,0-.307.3v9.09a1.044,1.044,0,0,1-.091.443,1.009,1.009,0,0,1-.61.481c-.125.042-.3.08-.5.125-.912.2-2.438.553-2.438,1.961a1.733,1.733,0,0,0,1.579,1.8,1.846,1.846,0,0,0,.269.027h0a4.673,4.673,0,0,0,1.938-.5,2.04,2.04,0,0,0,.912-1.81V8.77a.3.3,0,0,1,.242-.3l5.755-1.162a.3.3,0,0,1,.363.3v4.956a1.085,1.085,0,0,1-.095.507,1.006,1.006,0,0,1-.613.481c-.125.042-.333.08-.534.125-.912.2-2.438.549-2.438,1.957a1.736,1.736,0,0,0,1.583,1.829,3.129,3.129,0,0,0,.734-.034,4.341,4.341,0,0,0,1.382-.492,2,2,0,0,0,1.041-1.825V3.674A.3.3,0,0,0,18.5,3.383Z" transform="translate(-6.75 -3.375)"/></svg>